<svg xmlns="http://www.w3.org/2000/svg" version="1.1" xmlns:xlink="http://www.w3.org/1999/xlink" xmlns:svgjs="http://svgjs.dev/svgjs" width="100%" height="100%" viewBox="0 0 1000 600"><rect width="1000" height="600" x="0" y="0" fill="#000000"/><g><rect width="333.3333333333333" height="333.3333333333333" rx="13.333333333333334" ry="13.333333333333334" y="258.7893859172117" fill="gold" transform="matrix(0.5283912051062077,0,0,0.5283912051062079,0,75.19276686446918)" x="236.5672607421875"/>
<path d="M385.5753616604704 350.4560512729294L385.5753616604704 350.4560512729294Q396.4143813706315 350.4560512729294 407.34372624504397 350.4560512729294Q418.3031795075402 350.4560512729294 429.0217656653662 350.787243541851Q439.770460211276 351.08832742268885 449.7363366670075 351.750711960532L449.7363366670075 351.750711960532L448.86319341257786 366.7145808381711L388.82706757351866 366.7145808381711Q382.11289703083554 366.7145808381711 378.95151628203854 370.0566119154708Q375.82024392132536
 373.42875138085424 375.82024392132536 381.01606517796705L375.82024392132536 381.01606517796705L375.82024392132536 469.8960268012883Q375.82024392132536 477.48334059840107 378.95151628203854 480.9458052280359Q382.11289703083554 484.40826985767075 388.82706757351866 484.40826985767075L388.82706757351866 484.40826985767075L448.86319341257786 484.40826985767075L449.7363366670075 499.1613800187234Q439.770460211276 499.8237645565666 429.0217656653662 500.03452327315296Q418.3031795075402 500.24528198973945 
 407.34372624504397 500.3657155420746Q396.4143813706315 500.45604070632595 385.5753616604704 500.45604070632595L385.5753616604704 500.45604070632595Q372.3577792916905 500.45604070632595 364.6500319422426 493.4106778947212Q356.9422845927947 486.36531508311646 356.73152587620825 474.4423934019392L356.73152587620825 474.4423934019392L356.73152587620825 376.46969857731614Q356.9422845927947 364.3360181795524 364.6500319422426 357.38098053219903Q372.3577792916905 350.4560512729294 385.5753616604704 350.4560512729294ZM360.64561632709973
  428.91851061926246L360.64561632709973 413.53312430845045L440.4027363610354 413.53312430845045L440.4027363610354 428.91851061926246L360.64561632709973 428.91851061926246Z " fill="#ffff" transform="matrix(0.5283912051062077,0,0,0.5283912051062079,0,75.19276686446918)"/>
  <path d="M690.5315957547618 383.915294667515L690.5315957547618 383.915294667515Q708.8451430027819 383.915294667515 717.076989998104 390.57476639406775Q725.3088369934262 397.2342381206205 725.3088369934262 410.3913194137057L725.3088369934262 410.3913194137057Q725.4938223191638 421.2129609693539 720.8229428442899 427.2943535529767Q716.152063369416 433.37574613659956 706.0009936195665 433.37574613659956L706.0009936195665 433.37574613659956L658.7141197278986 433.37574613659956L658.7141197278986 422.3691192552137L702.3475334362495 
  422.3691192552137Q707.8277237112252 422.3691192552137 709.4925916428633 418.6231664090278Q711.1574595745016 414.87721356284186 711.1574595745016 410.3913194137057L711.1574595745016 410.3913194137057Q710.9955974144812 402.57568940129306 706.509703265345 399.24595353801664Q702.0006859504915 395.91621767474027 691.1790443948432 395.91621767474027L691.1790443948432 395.91621767474027Q682.3691182565913 395.91621767474027 677.2820217988078 398.48288906934914Q672.2180485067418 401.0726836296752 670.136963592194 407.47780053333884Q668.0558786776462
   413.8829174370024 668.0558786776462 425.37513079844933L668.0558786776462 425.37513079844933Q668.0558786776462 438.3703499315141 670.6225500722551 445.19168381808726Q673.2123446325811 452.0130177046604 678.8775202332945 454.5103196021177Q684.5195726682905 457.00762149957495 693.8613316180381 457.00762149957495L693.8613316180381 457.00762149957495Q700.3358180188534 457.00762149957495 708.0820785341143 456.429542356645Q715.8283390493755 455.85146321371514 721.9791011301497 455.019029247896L721.9791011301497 455.019029247896L723.4821069017676
    464.4995271919468Q719.6667845584301 466.00253296356465 714.0709784548684 466.9968290894041Q708.498295517024 467.9911252152436 702.6018882591386 468.4998348610219Q696.6823578355362 468.98542134108305 692.0114783606623 468.98542134108305L692.0114783606623 468.98542134108305Q678.0450862674754 468.98542134108305 669.5357612835469 464.753882014836Q661.0495594653355 460.4992195228717 657.1417444591292 451.0880910759725Q653.2339294529229 441.7000857947905 653.2339294529229 426.20756476426845L653.2339294529229 426.20756476426845Q653.2339294529229
     410.22945725368527 657.1417444591292 400.98019096680645Q661.0495594653355 391.75404784564483 669.3045296263749 387.8231096737213Q677.536376621697 383.915294667515 690.5315957547618 383.915294667515ZM845.3643133971135 383.915294667515L845.3643133971135 383.915294667515Q855.8391074670038 383.915294667515 861.4117904048481 389.5804702682283Q867.0075965084098 395.24564586894155 867.0075965084098 406.2291495846102L867.0075965084098 406.2291495846102L867.0075965084098 466.9968290894041L853.0180812495056 466.9968290894041L853.0180812495056 410.22945725368527Q852.8562190894853
      402.7375515613134 850.0120697062699 399.31532303516826Q847.1910434887719 395.91621767474027 840.3697096021989 395.91621767474027L840.3697096021989 395.91621767474027Q836.0225544473659 395.91621767474027 832.1147394411595 397.3267307834893Q828.2069244349533 398.7372438922383 823.5360449600795 401.74325543547394Q818.8882886509228 404.72614381299235 812.2288169243701 409.55888544788655L812.2288169243701 409.55888544788655L811.396382958551 399.56967785805745Q820.206309096803 391.75404784564483 828.5306487549939 387.8231096737213Q836.854988413185 383.915294667515 845.3643133971135
       383.915294667515ZM746.628395784682 385.92701008491116L758.2824713061492 385.92701008491116L759.2767674319888 401.396407949716L760.7797732036064 403.8937098471733L760.7797732036064 466.9968290894041L746.628395784682 466.9968290894041L746.628395784682 385.92701008491116ZM792.2504017447117 383.915294667515L792.2504017447117 383.915294667515Q802.5633336545817 383.915294667515 808.0666470952746 389.4879776053595Q813.5468373702503 395.0837837089212 813.7318226959877 406.2291495846102L813.7318226959877 406.2291495846102L813.7318226959877 466.9968290894041L800.0660317571243
        466.9968290894041L800.0660317571243 410.22945725368527Q800.0660317571243 402.39070407555545 796.8981580538683 399.15346087514786Q793.7534075163295 395.91621767474027 787.4176601098176 395.91621767474027L787.4176601098176 395.91621767474027Q783.255490280722 395.91621767474027 779.3476752745158 397.2342381206205Q775.4398602683094 398.5753817322179 770.6764881305668 401.5582701097364Q765.9362391585415 404.564281652972 759.1149052719683 409.55888544788655L759.1149052719683 409.55888544788655L758.1206091461289 399.56967785805745Q766.9305352843809 391.75404784564483
         775.254874942572 387.8231096737213Q783.5792146007628 383.915294667515 792.2504017447117 383.915294667515ZM938.9206418888929 383.915294667515L938.9206418888929 383.915294667515Q953.7425911136162 383.915294667515 960.2402006801486 394.829428886032Q966.7146870809637 405.7204399388318 966.7146870809637 426.87813657006717L966.7146870809637 426.87813657006717Q966.7146870809637 442.5325197606096 963.3849512176872 451.7586628817712Q960.055215354411 461.00792916865004 953.3263741307065 465.0082368377252Q946.574409741285 468.98542134108305 936.0996156713949 468.98542134108305L936.0996156713949 
         468.98542134108305Q928.0990003332446 468.98542134108305 920.3527398179834 466.8349669293837Q912.6064793027225 464.6613893519672 905.2995589360884 460.175495202831L905.2995589360884 460.175495202831L906.1319929019074 451.68929338461965Q913.94762291432 453.83974779631893 919.936522835074 455.250260905068Q925.925422755828 456.6838971795342 932.584894482381 456.6838971795342L932.584894482381 456.6838971795342Q939.7530758547119 456.6838971795342 944.0077383466761 454.1865952820769Q948.2392776729233 451.68929338461965 950.2509930903194 445.19168381808726Q952.2395853419983
          438.69407425155487 952.2395853419983 426.87813657006717L952.2395853419983 426.87813657006717Q952.2395853419983 415.3859232086202 950.4128552503397 408.7264514820675Q948.5861251586813 402.0669797555147 944.6551869867577 399.15346087514786Q940.7473719805513 396.239941994781 934.2497624140191 396.239941994781L934.2497624140191 396.239941994781Q927.5902906874663 396.239941994781 921.115804286651 399.40781569803704Q914.6181947201188 402.57568940129306 905.9470075761698 409.05017580210824L905.9470075761698 409.05017580210824L904.6289871302896 399.56967785805745Q909.1148812794257
           394.73693622316324 914.7800568801391 391.24533819986647Q920.4452324808523 387.7537401765697 926.6884872244956 385.8345174220423Q932.9317419681387 383.915294667515 938.9206418888929 383.915294667515ZM892.4662019630438 385.92701008491116L904.1202774845111 385.92701008491116L905.623283256129 402.7375515613134L906.6175793819685 404.88800597301275L906.6175793819685 456.8457593395546L905.9470075761698 458.83435159123354Q906.455717221948 463.50523106610734 906.5482098848169 467.8292630552232Q906.6175793819685 472.153295044339 906.6175793819685 476.9860366792332L906.6175793819685
            476.9860366792332L906.6175793819685 500.45604988218827L892.4662019630438 500.45604988218827L892.4662019630438 385.92701008491116ZM1023.3201967566621 383.915294667515L1023.3201967566621 383.915294667515Q1037.3097120155662 383.915294667515 1045.726544336626 388.07746449661045Q1054.1202534919685 392.23963432570594 1057.796836841003 401.65076277260516Q1061.4502970243202 411.0618912195044 1061.4502970243202 426.5312890843092L1061.4502970243202 426.5312890843092Q1061.4502970243202 442.02381011483124 1057.796836841003 451.43493856173046Q1054.1202534919685 460.8460670086297
             1045.726544336626 465.0082368377252Q1037.3097120155662 469.1704066668206 1023.3201967566621 469.1704066668206L1023.3201967566621 469.1704066668206Q1009.5156668234955 
469.1704066668206 1001.0988345024358 465.0082368377252Q992.7051253470933 460.8460670086297 988.9591725009074 451.43493856173046Q985.2132196547215 442.02381011483124 985.2132196547215 426.5312890843092L985.2132196547215 426.5312890843092Q985.2132196547215 411.0618912195044 988.9591725009074 401.65076277260516Q992.7051253470933 392.23963432570594 1001.0988345024358 388.07746449661045Q1009.5156668234955 383.915294667515 1023.3201967566621 383.915294667515ZM1023.3201967566621 395.91621767474027L1023.3201967566621 395.91621767474027Q1014.5102706184101 395.91621767474027 1009.4231741606267
 398.64475122936955Q1004.3592008685606 401.396407949716 1002.185623291144 408.0558796762688Q1000.0120457137276 414.7153514028215 1000.0120457137276 426.5312890843092L1000.0120457137276 426.5312890843092Q1000.0120457137276 438.3703499315141 1002.185623291144 445.02982165806685Q1004.3592008685606 451.68929338461965 1009.4231741606267 454.41782693924887Q1014.5102706184101 457.16948365959536 1023.3201967566621 457.16948365959536L1023.3201967566621 457.16948365959536Q1032.1532460606313 457.16948365959536 1037.3097120155662 454.41782693924887Q1042.4661779705016 451.68929338461965 1044.639755547918
  445.02982165806685Q1046.8133331253343 438.3703499315141 1046.8133331253343 426.5312890843092L1046.8133331253343 426.5312890843092Q1046.8133331253343 414.7153514028215 1044.639755547918 408.0558796762688Q1042.4661779705016 401.396407949716 1037.3097120155662 398.64475122936955Q1032.1532460606313 395.91621767474027 1023.3201967566621 395.91621767474027ZM1188.9745559546618 385.92701008491116L1203.6346430193648 385.92701008491116L1180.0027676563896 462.99652142032903Q1179.4940580106113 464.82325151198756 1177.9910522389932 465.9100403006958Q1176.4880464673756 466.9968290894041 1174.4994542156965
   466.9968290894041L1174.4994542156965 466.9968290894041L1161.6892204083692 466.9968290894041Q1159.6775049909734 466.9968290894041 1158.1051297222039 465.74817814067546Q1156.5096312877172 464.4995271919468 1156.1859069676766 462.5109349402679L1156.1859069676766 462.5109349402679L1142.8669635145711 407.38530787047006Q1142.1963917087724 404.24055733293125 1141.6183125658422 401.0726836296752Q1141.0402334229125 397.9048099264192 1140.2077994570932 394.57507406314284L1140.2077994570932 394.57507406314284L1138.1960840396973 394.57507406314284Q1137.5486353996157 397.9048099264192 1136.7855709309483
    401.0726836296752Q1136.045629627998 404.24055733293125 1135.3750578221993 407.38530787047006L1135.3750578221993 407.38530787047006L1122.217976529114 462.5109349402679Q1121.7323900490528 464.4995271919468 1120.2293842774352 465.74817814067546Q1118.7263785058171 466.9968290894041 1116.5528009284008 466.9968290894041L1116.5528009284008 466.9968290894041L1103.904429281094 466.9968290894041Q1101.915837029415 466.9968290894041 1100.4128312577973 465.9100403006958Q1098.9098254861792 464.82325151198756 1098.4242390061181 462.99652142032903L1098.4242390061181 462.99652142032903L1074.7692404774257
     385.92701008491116L1089.4293275421287 385.92701008491116L1106.239869018531 445.67727029814836Q1107.0723029843498 448.68328184138403 1107.7428747901486 451.7586628817712Q1108.4134465959473 454.8340439221584 1108.8990330760084 457.8400554653941L1108.8990330760084 457.8400554653941L1111.0726106534253 457.8400554653941Q1111.905044619244 454.8340439221584 1112.6449859221943 451.7586628817712Q1113.4080503908622 448.68328184138403 1114.0554990309433 445.67727029814836L1114.0554990309433 445.67727029814836L1127.5594278097865 390.4129042340474Q1127.8831521298275 388.42431198236847 
     1129.2936652385765 387.17566103363976Q1130.7041783473255 385.92701008491116 1132.877755924742 385.92701008491116L1132.877755924742 385.92701008491116L1145.6879897320691 385.92701008491116Q1147.6997051494654 385.92701008491116 1149.1102182582144 387.17566103363976Q1150.5207313669634 388.42431198236847 1151.0294410127417 390.57476639406775L1151.0294410127417 390.57476639406775L1164.3483844658472 445.67727029814836Q1165.018956271646 448.68328184138403 1165.7588975745962 451.68929338461965Q1166.4988388775464 454.67218176213805 1167.1694106833452 457.8400554653941L1167.1694106833452
      457.8400554653941L1169.3429882607616 457.8400554653941Q1170.1754222265808 454.67218176213805 1170.661008706642 451.7586628817712Q1171.1697183524202 448.8451440014044 1172.1640144782596 445.67727029814836L1172.1640144782596 445.67727029814836L1188.9745559546618 385.92701008491116ZM1254.0893906142892 383.915294667515L1254.0893906142892 383.915294667515Q1272.4029378623095 383.915294667515 1280.6347848576315 390.57476639406775Q1288.8666318529536 397.2342381206205 1288.8666318529536 410.3913194137057L1288.8666318529536 410.3913194137057Q1289.0516171786912 421.2129609693539 1284.380737703817
       427.2943535529767Q1279.7098582289432 433.37574613659956 1269.558788479094 433.37574613659956L1269.558788479094 433.37574613659956L1222.2719145874257 433.37574613659956L1222.2719145874257 422.3691192552137L1265.905328295777 422.3691192552137Q1271.3855185707525 422.3691192552137 1273.0503865023907 418.6231664090278Q1274.7152544340288 414.87721356284186 1274.7152544340288 410.3913194137057L1274.7152544340288 410.3913194137057Q1274.5533922740083 402.57568940129306 1270.0674981248721 399.24595353801664Q1265.5584808100189 395.91621767474027 1254.7368392543704 395.91621767474027L1254.7368392543704
        395.91621767474027Q1245.9269131161182 395.91621767474027 1240.8398166583352 398.48288906934914Q1235.7758433662689 401.0726836296752 1233.694758451721 407.47780053333884Q1231.6136735371733 413.8829174370024 1231.6136735371733 425.37513079844933L1231.6136735371733 425.37513079844933Q1231.6136735371733 438.3703499315141 1234.1803449317822 445.19168381808726Q1236.7701394921082 452.0130177046604 1242.4353150928218 454.5103196021177Q1248.0773675278178 457.00762149957495 1257.4191264775654 457.00762149957495L1257.4191264775654 457.00762149957495Q1263.8936128783807 457.00762149957495 1271.6398733936417
         456.429542356645Q1279.3861339089026 455.85146321371514 1285.5368959896769 455.019029247896L1285.5368959896769 455.019029247896L1287.039901761295 464.4995271919468Q1283.2245794179576 466.00253296356465 1277.6287733143959 466.9968290894041Q1272.0560903765513 467.9911252152436 1266.1596831186657 468.4998348610219Q1260.2401526950634 468.98542134108305 1255.5692732201896 468.98542134108305L1255.5692732201896 468.98542134108305Q1241.6028811270025 468.98542134108305 1233.0935561430738 464.753882014836Q1224.6073543248626 460.4992195228717 1220.6995393186562 451.0880910759725Q1216.7917243124502 441.7000857947905
          1216.7917243124502 426.20756476426845L1216.7917243124502 426.20756476426845Q1216.7917243124502 410.22945725368527 1220.6995393186562 400.98019096680645Q1224.6073543248626 391.75404784564483 1232.8623244859023 387.8231096737213Q1241.0941714812243 383.915294667515 1254.0893906142892 383.915294667515ZM1310.186190644209 385.92701008491116L1321.1696943598777 385.92701008491116L1322.9964244515363 401.396407949716L1324.3375680631339 403.8937098471733L1324.3375680631339 466.9968290894041L1310.186190644209 466.9968290894041L1310.186190644209 385.92701008491116ZM1357.3112023758567 383.915294667515L1360.964662559174 
          383.915294667515L1359.299794627536 397.2342381206205L1354.628915152662 397.2342381206205Q1347.483856946048 397.2342381206205 1340.3156755737168 400.1477570009873Q1333.1706173671032 403.06127588135416 1322.8345622915162 408.4027271620267L1322.8345622915162 408.4027271620267L1321.6784040056564 399.56967785805745Q1330.6733154696458 392.23963432570594 1339.737596430787 388.07746449661045Q1348.8018773919284 383.915294667515 1357.3112023758567 383.915294667515L1357.3112023758567 383.915294667515ZM1378.445775841375 352.12094180636905L1393.105862906078 352.12094180636905L1393.105862906078
           466.9968290894041L1378.445775841375 466.9968290894041L1378.445775841375 352.12094180636905ZM1391.7647192944805 399.24595353801664L1447.861519324401 399.24595353801664L1447.861519324401 411.89432518532345L1391.7647192944805 411.89432518532345L1391.7647192944805 399.24595353801664ZM1446.0347892327418 352.12094180636905L1460.6948762974448 352.12094180636905L1460.6948762974448 466.9968290894041L1446.0347892327418 466.9968290894041L1446.0347892327418 352.12094180636905ZM1487.6564875236968 385.92701008491116L1501.8078649426216 385.92701008491116L1501.8078649426216 442.85624408065036Q1501.646002782601
            450.51001193304256 1504.6520143258367 453.6778856362986Q1507.6349027033552 456.8457593395546 1514.641221915666 456.8457593395546L1514.641221915666 456.8457593395546Q1521.462555802239 456.8457593395546 1528.191397025943 453.5853929734298Q1534.943361415365 450.3481497730222 1544.4238593594155 444.1973876922478L1544.4238593594155 444.1973876922478L1546.2737126167913 454.00160995633934Q1536.7700915070236 461.4935156487112 1527.8676727059024 465.3319611577659Q1518.9652539047815 469.1704066668206 1509.8084802807716 469.1704066668206L1509.8084802807716 469.1704066668206Q1487.6564875236968 
            469.1704066668206 1487.6564875236968 446.85655174972544L1487.6564875236968 446.85655174972544L1487.6564875236968 385.92701008491116ZM1542.943976753515 385.92701008491116L1557.0953541724393 385.92701008491116L1557.0953541724393 466.9968290894041L1545.765002971013 466.9968290894041L1544.4238593594155 451.68929338461965L1542.943976753515 449.19199148716234L1542.943976753515 385.92701008491116ZM1626.6729598154857 383.915294667515L1626.6729598154857 383.915294667515Q1641.6567712002293 383.915294667515 1648.8249525725605 393.65014743445494Q1655.9700107791741 403.4081233671121 1655.9700107791741 
            426.20756476426845L1655.9700107791741 426.20756476426845Q1655.9700107791741 436.70548199987593 1654.2357733503845 444.6829741723089Q1652.4784127558773 452.6835895104591 1648.4087355896509 458.0944102882832Q1644.3159352577068 463.50523106610734 1637.4252318739823 466.2568877864538Q1630.5114053245402 468.98542134108305 1620.0134880889327 468.98542134108305L1620.0134880889327 468.98542134108305Q1615.8513182598372 468.98542134108305 1611.0185766249433 468.6616970210423Q1606.2089581557661 468.33797270100155 1601.2143543608518 467.57490823233405Q1596.219750565937 466.8349669293837 1591.4563784281945 
            465.74817814067546Q1586.7161294561688 464.6613893519672 1582.7158217870938 463.1583835803494L1582.7158217870938 463.1583835803494L1594.0461729885205 453.51602347627824Q1598.5320671376567 454.8340439221584 1602.9485917896413 455.6664778879775Q1607.365116441626 456.49891185379664 1611.6197789335902 456.75326667668577Q1615.8513182598372 457.00762149957495 1619.6897637688921 457.00762149957495L1619.6897637688921 457.00762149957495Q1627.5053937813045 456.8457593395546 1632.2456427533302 454.00160995633934Q1637.0090148910726 451.1805837388413 1639.1594693027719 444.42861934941976Q1641.3330468801882
             437.6997781257154 1641.3330468801882 426.20756476426845L1641.3330468801882 426.20756476426845Q1641.3330468801882 415.0621988885795 1639.6681789485506 408.4720966591783Q1638.003311016912 401.90511759549435 1633.7486485249478 399.0609682122791Q1629.5171091987008 396.239941994781 1621.6783560205708 396.239941994781L1621.6783560205708 396.239941994781Q1615.0188842940183 396.239941994781 1609.0299843732641 399.8240326809466Q1603.0410844525104 403.4081233671121 1595.2023312743804 409.55888544788655L1595.2023312743804 409.55888544788655L1594.208035148541 400.07838750383576Q1599.2026389434554
              394.73693622316324 1604.451597561259 391.1528455369977Q1609.700556179063 387.59187801654934 1615.3657317797765 385.74202475917355Q1621.0077842147725 383.915294667515 1626.6729598154857 383.915294667515ZM1582.7158217870938 350.4560738747308L1596.8671992060185 350.4560738747308L1596.8671992060185 380.747420964259Q1596.8671992060185 385.92701008491116 1596.6359675488466 390.251042074027Q1596.3816127259574 394.57507406314284 1595.387316600118 399.0609682122791L1595.387316600118 399.0609682122791L1596.705337045998 401.396407949716L1596.8671992060185 463.8289553861481L1582.7158217870938 
              463.1583835803494L1582.7158217870938 350.4560738747308Z " fill="#ffff" transform="matrix(0.5283912051062077,0,0,0.5283912051062079,0,75.19276686446918)"/></g></svg>